<svg data-v-fde0c5aa="" xmlns="http://www.w3.org/2000/svg" viewBox="0 0 300 300" class="iconLeft"><!----><defs data-v-fde0c5aa=""><!----></defs><rect data-v-fde0c5aa="" fill="transparent" x="0" y="0" width="300px" height="300px" class="logo-background-square"></rect><defs data-v-fde0c5aa=""><!----></defs><g data-v-fde0c5aa="" id="202d6caa-5413-4afc-a6d7-027f28dd6531" fill="#000000" transform="matrix(1.950162505132474,0,0,1.950162505132474,80.01950247571676,133.66738855456055)"><path d="M11.59 13.55L11.13 13.55L11.12 4.72L6.82 12.19L6.57 12.19L2.25 4.75L2.25 13.55L1.79 13.55L1.79 3.75L2.18 3.75L6.69 11.59L11.19 3.75L11.58 3.75L11.59 13.55ZM14.94 13.55L14.94 6.29L15.40 6.29L15.40 13.55L14.94 13.55ZM15.16 4.38L15.16 4.38Q14.98 4.38 14.84 4.25L14.84 4.25L14.84 4.25Q14.70 4.12 14.70 3.93L14.70 3.93L14.70 3.93Q14.70 3.74 14.83 3.60L14.83 3.60L14.83 3.60Q14.97 3.47 15.16 3.47L15.16 3.47L15.16 3.47Q15.34 3.47 15.48 3.60L15.48 3.60L15.48 3.60Q15.62 3.74 15.62 3.92L15.62 3.92L15.62 3.92Q15.62 4.10 15.48 4.24L15.48 4.24L15.48 4.24Q15.34 4.38 15.16 4.38L15.16 4.38ZM21.94 6.23L21.94 6.23Q23.30 6.23 24.08 7.02L24.08 7.02L24.08 7.02Q24.86 7.81 24.86 9.28L24.86 9.28L24.86 13.55L24.40 13.55L24.40 9.31L24.40 9.31Q24.40 8.02 23.75 7.34L23.75 7.34L23.75 7.34Q23.10 6.66 21.90 6.66L21.90 6.66L21.90 6.66Q20.54 6.66 19.75 7.47L19.75 7.47L19.75 7.47Q18.97 8.27 18.97 9.63L18.97 9.63L18.97 13.55L18.51 13.55L18.51 6.29L18.96 6.29L18.96 8.06L18.96 8.06Q19.31 7.21 20.08 6.72L20.08 6.72L20.08 6.72Q20.86 6.23 21.94 6.23L21.94 6.23ZM27.89 13.55L27.89 6.29L28.35 6.29L28.35 13.55L27.89 13.55ZM28.11 4.38L28.11 4.38Q27.93 4.38 27.79 4.25L27.79 4.25L27.79 4.25Q27.65 4.12 27.65 3.93L27.65 3.93L27.65 3.93Q27.65 3.74 27.78 3.60L27.78 3.60L27.78 3.60Q27.92 3.47 28.11 3.47L28.11 3.47L28.11 3.47Q28.29 3.47 28.43 3.60L28.43 3.60L28.43 3.60Q28.57 3.74 28.57 3.92L28.57 3.92L28.57 3.92Q28.57 4.10 28.43 4.24L28.43 4.24L28.43 4.24Q28.29 4.38 28.11 4.38L28.11 4.38ZM40.50 6.23L40.50 6.23Q41.83 6.23 42.60 7.01L42.60 7.01L42.60 7.01Q43.36 7.80 43.36 9.28L43.36 9.28L43.36 13.55L42.90 13.55L42.90 9.31L42.90 9.31Q42.90 8.02 42.27 7.34L42.27 7.34L42.27 7.34Q41.64 6.66 40.47 6.66L40.47 6.66L40.47 6.66Q39.17 6.66 38.40 7.48L38.40 7.48L38.40 7.48Q37.63 8.29 37.63 9.63L37.63 9.63L37.63 13.55L37.17 13.55L37.17 9.31L37.17 9.31Q37.17 8.02 36.54 7.34L36.54 7.34L36.54 7.34Q35.91 6.66 34.76 6.66L34.76 6.66L34.76 6.66Q33.45 6.66 32.68 7.47L32.68 7.47L32.68 7.47Q31.92 8.27 31.92 9.63L31.92 9.63L31.92 13.55L31.46 13.55L31.46 6.29L31.91 6.29L31.91 8.04L31.91 8.04Q32.24 7.20 32.99 6.71L32.99 6.71L32.99 6.71Q33.74 6.23 34.79 6.23L34.79 6.23L34.79 6.23Q35.84 6.23 36.55 6.73L36.55 6.73L36.55 6.73Q37.27 7.24 37.51 8.20L37.51 8.20L37.51 8.20Q37.83 7.29 38.61 6.76L38.61 6.76L38.61 6.76Q39.40 6.23 40.50 6.23L40.50 6.23ZM48.76 6.23L48.76 6.23Q50.06 6.23 50.76 6.90L50.76 6.90L50.76 6.90Q51.45 7.57 51.45 8.85L51.45 8.85L51.45 13.55L51.00 13.55L51.00 12.10L51.00 12.10Q50.65 12.80 49.96 13.20L49.96 13.20L49.96 13.20Q49.27 13.59 48.30 13.59L48.30 13.59L48.30 13.59Q47.08 13.59 46.39 13.03L46.39 13.03L46.39 13.03Q45.70 12.47 45.70 11.55L45.70 11.55L45.70 11.55Q45.70 10.67 46.33 10.11L46.33 10.11L46.33 10.11Q46.96 9.56 48.34 9.56L48.34 9.56L50.99 9.56L50.99 8.85L50.99 8.85Q50.99 7.77 50.42 7.21L50.42 7.21L50.42 7.21Q49.85 6.65 48.75 6.65L48.75 6.65L48.75 6.65Q47.98 6.65 47.31 6.92L47.31 6.92L47.31 6.92Q46.63 7.18 46.16 7.63L46.16 7.63L45.91 7.29L45.91 7.29Q46.44 6.79 47.19 6.51L47.19 6.51L47.19 6.51Q47.94 6.23 48.76 6.23L48.76 6.23ZM48.33 13.20L48.33 13.20Q50.29 13.20 50.99 11.45L50.99 11.45L50.99 9.94L48.34 9.94L48.34 9.94Q47.21 9.94 46.68 10.37L46.68 10.37L46.68 10.37Q46.16 10.79 46.16 11.52L46.16 11.52L46.16 11.52Q46.16 12.31 46.74 12.75L46.74 12.75L46.74 12.75Q47.32 13.20 48.33 13.20L48.33 13.20ZM54.47 13.55L54.47 3.16L54.94 3.16L54.94 13.55L54.47 13.55ZM60.14 13.55L60.14 4.19L56.55 4.19L56.55 3.75L64.20 3.75L64.20 4.19L60.61 4.19L60.61 13.55L60.14 13.55ZM68.56 13.59L68.56 13.59Q67.55 13.59 66.73 13.13L66.73 13.13L66.73 13.13Q65.91 12.66 65.45 11.82L65.45 11.82L65.45 11.82Q64.99 10.98 64.99 9.91L64.99 9.91L64.99 9.91Q64.99 8.85 65.45 8.01L65.45 8.01L65.45 8.01Q65.91 7.17 66.73 6.70L66.73 6.70L66.73 6.70Q67.55 6.23 68.56 6.23L68.56 6.23L68.56 6.23Q69.58 6.23 70.39 6.70L70.39 6.70L70.39 6.70Q71.20 7.17 71.67 8.01L71.67 8.01L71.67 8.01Q72.13 8.85 72.13 9.91L72.13 9.91L72.13 9.91Q72.13 10.98 71.67 11.82L71.67 11.82L71.67 11.82Q71.20 12.66 70.39 13.13L70.39 13.13L70.39 13.13Q69.58 13.59 68.56 13.59L68.56 13.59ZM68.56 13.17L68.56 13.17Q69.44 13.17 70.15 12.76L70.15 12.76L70.15 12.76Q70.85 12.35 71.26 11.61L71.26 11.61L71.26 11.61Q71.67 10.86 71.67 9.91L71.67 9.91L71.67 9.91Q71.67 8.96 71.26 8.22L71.26 8.22L71.26 8.22Q70.85 7.49 70.15 7.08L70.15 7.08L70.15 7.08Q69.44 6.66 68.56 6.66L68.56 6.66L68.56 6.66Q67.68 6.66 66.97 7.08L66.97 7.08L66.97 7.08Q66.26 7.49 65.86 8.22L65.86 8.22L65.86 8.22Q65.45 8.96 65.45 9.91L65.45 9.91L65.45 9.91Q65.45 10.86 65.86 11.61L65.86 11.61L65.86 11.61Q66.26 12.35 66.97 12.76L66.97 12.76L66.97 12.76Q67.68 13.17 68.56 13.17L68.56 13.17ZM74.65 13.55L74.65 3.75L78.43 3.75L78.43 3.75Q79.95 3.75 81.14 4.38L81.14 4.38L81.14 4.38Q82.32 5.01 82.97 6.12L82.97 6.12L82.97 6.12Q83.62 7.24 83.62 8.65L83.62 8.65L83.62 8.65Q83.62 10.07 82.97 11.18L82.97 11.18L82.97 11.18Q82.32 12.29 81.14 12.92L81.14 12.92L81.14 12.92Q79.95 13.55 78.43 13.55L78.43 13.55L74.65 13.55ZM75.12 13.12L78.40 13.12L78.40 13.12Q79.83 13.12 80.90 12.54L80.90 12.54L80.90 12.54Q81.97 11.97 82.56 10.96L82.56 10.96L82.56 10.96Q83.15 9.94 83.15 8.65L83.15 8.65L83.15 8.65Q83.15 7.36 82.56 6.35L82.56 6.35L82.56 6.35Q81.97 5.33 80.90 4.76L80.90 4.76L80.90 4.76Q79.83 4.19 78.40 4.19L78.40 4.19L75.12 4.19L75.12 13.12ZM88.72 13.59L88.72 13.59Q87.71 13.59 86.89 13.13L86.89 13.13L86.89 13.13Q86.07 12.66 85.61 11.82L85.61 11.82L85.61 11.82Q85.15 10.98 85.15 9.91L85.15 9.91L85.15 9.91Q85.15 8.85 85.61 8.01L85.61 8.01L85.61 8.01Q86.07 7.17 86.89 6.70L86.89 6.70L86.89 6.70Q87.71 6.23 88.72 6.23L88.72 6.23L88.72 6.23Q89.74 6.23 90.55 6.70L90.55 6.70L90.55 6.70Q91.36 7.17 91.83 8.01L91.83 8.01L91.83 8.01Q92.29 8.85 92.29 9.91L92.29 9.91L92.29 9.91Q92.29 10.98 91.83 11.82L91.83 11.82L91.83 11.82Q91.36 12.66 90.55 13.13L90.55 13.13L90.55 13.13Q89.74 13.59 88.72 13.59L88.72 13.59ZM88.72 13.17L88.72 13.17Q89.60 13.17 90.31 12.76L90.31 12.76L90.31 12.76Q91.01 12.35 91.42 11.61L91.42 11.61L91.42 11.61Q91.83 10.86 91.83 9.91L91.83 9.91L91.83 9.91Q91.83 8.96 91.42 8.22L91.42 8.22L91.42 8.22Q91.01 7.49 90.31 7.08L90.31 7.08L90.31 7.08Q89.60 6.66 88.72 6.66L88.72 6.66L88.72 6.66Q87.84 6.66 87.13 7.08L87.13 7.08L87.13 7.08Q86.42 7.49 86.02 8.22L86.02 8.22L86.02 8.22Q85.61 8.96 85.61 9.91L85.61 9.91L85.61 9.91Q85.61 10.86 86.02 11.61L86.02 11.61L86.02 11.61Q86.42 12.35 87.13 12.76L87.13 12.76L87.13 12.76Q87.84 13.17 88.72 13.17L88.72 13.17Z"></path></g><defs data-v-fde0c5aa=""><linearGradient data-v-fde0c5aa="" gradientTransform="rotate(25)" id="f32781d9-0a60-49e3-b7f0-62c813ed42b5" x1="0%" y1="0%" x2="100%" y2="0%"><stop data-v-fde0c5aa="" offset="0%" stop-color="#87544E" stop-opacity="1"></stop><stop data-v-fde0c5aa="" offset="100%" stop-color="#87544E" stop-opacity="1"></stop></linearGradient></defs><g data-v-fde0c5aa="" id="f83714aa-e870-4ffd-8a18-599af553e1ae" stroke="none" fill="url(#f32781d9-0a60-49e3-b7f0-62c813ed42b5)" transform="matrix(0.953446665172222,0,0,0.953446665172222,40,134.74485335724444)"><circle cx="16" cy="16.021" r="8.066"></circle><path d="M32 0H0v32h32V0zM16 26.086c-5.551 0-10.066-4.516-10.066-10.065 0-5.55 4.516-10.066 10.066-10.066 5.55 0 10.065 4.516 10.065 10.066.001 5.55-4.515 10.065-10.065 10.065z"></path></g><!----></svg>